<svg width="36" height="36" viewBox="0 0 36 36" fill="none" xmlns="http://www.w3.org/2000/svg">
<rect width="36" height="36" rx="18" fill="#FAFAFA"/>
<path fill-rule="evenodd" clip-rule="evenodd" d="M12.1666 18.8332H22.0541L19.0266 22.4665C18.7316 22.8198 18.7799 23.3457 19.1333 23.6398C19.4874 23.9348 20.0124 23.8865 20.3074 23.5332L24.4741 18.5332C24.5066 18.494 24.5224 18.4482 24.5466 18.4048C24.5666 18.3698 24.5908 18.3398 24.6058 18.3015C24.6433 18.2057 24.6658 18.1048 24.6658 18.0032C24.6658 18.0023 24.6666 18.0007 24.6666 17.9998C24.6666 17.999 24.6658 17.9973 24.6658 17.9965C24.6658 17.8948 24.6433 17.794 24.6058 17.6982C24.5908 17.6598 24.5666 17.6298 24.5466 17.5948C24.5224 17.5515 24.5066 17.5057 24.4741 17.4665L20.3074 12.4665C20.1416 12.269 19.9049 12.1665 19.6666 12.1665C19.4783 12.1665 19.2891 12.2298 19.1333 12.3598C18.7799 12.654 18.7316 13.1798 19.0266 13.5332L22.0541 17.1665H12.1666C11.7066 17.1665 11.3333 17.5398 11.3333 17.9998C11.3333 18.4598 11.7066 18.8332 12.1666 18.8332Z" fill="#FF6F61"/>
<mask id="mask0_1078_2285" style="mask-type:luminance" maskUnits="userSpaceOnUse" x="11" y="12" width="14" height="12">
<path fill-rule="evenodd" clip-rule="evenodd" d="M12.1666 18.8332H22.0541L19.0266 22.4665C18.7316 22.8198 18.7799 23.3457 19.1333 23.6398C19.4874 23.9348 20.0124 23.8865 20.3074 23.5332L24.4741 18.5332C24.5066 18.494 24.5224 18.4482 24.5466 18.4048C24.5666 18.3698 24.5908 18.3398 24.6058 18.3015C24.6433 18.2057 24.6658 18.1048 24.6658 18.0032C24.6658 18.0023 24.6666 18.0007 24.6666 17.9998C24.6666 17.999 24.6658 17.9973 24.6658 17.9965C24.6658 17.8948 24.6433 17.794 24.6058 17.6982C24.5908 17.6598 24.5666 17.6298 24.5466 17.5948C24.5224 17.5515 24.5066 17.5057 24.4741 17.4665L20.3074 12.4665C20.1416 12.269 19.9049 12.1665 19.6666 12.1665C19.4783 12.1665 19.2891 12.2298 19.1333 12.3598C18.7799 12.654 18.7316 13.1798 19.0266 13.5332L22.0541 17.1665H12.1666C11.7066 17.1665 11.3333 17.5398 11.3333 17.9998C11.3333 18.4598 11.7066 18.8332 12.1666 18.8332Z" fill="white"/>
</mask>
<g mask="url(#mask0_1078_2285)">
<rect x="8" y="8" width="20" height="20" fill="#FF6F61"/>
</g>
</svg>
