<svg width="295" height="60" viewBox="0 0 295 60" fill="none" xmlns="http://www.w3.org/2000/svg">
<path d="M38.1667 39.1667C48.2919 39.1667 56.5 30.9586 56.5 20.8333C56.5 10.7081 48.2919 2.5 38.1667 2.5H12.5V39.1667H38.1667Z" fill="#AEEAFB"/>
<path d="M12.5 2.5L56.5 57.5H27.1667L12.5 39.1667V2.5Z" fill="#3498DB"/>
<path d="M41.5796 38.8496C40.4738 39.0578 39.333 39.1667 38.1667 39.1667H12.5V2.5L41.5796 38.8496Z" fill="#63BBE9"/>
<path d="M86.6749 42.8501C84.1082 42.8501 81.9032 42.3368 80.0599 41.3101C78.2399 40.2601 76.8399 38.7901 75.8599 36.9001C74.8799 34.9868 74.3899 32.7351 74.3899 30.1451C74.3899 27.5551 74.8799 25.3151 75.8599 23.4251C76.8399 21.5351 78.2399 20.0768 80.0599 19.0501C81.9032 18.0001 84.1082 17.4751 86.6749 17.4751C88.3316 17.4751 89.8949 17.7318 91.3649 18.2451C92.8582 18.7584 94.0832 19.4934 95.0399 20.4501L93.5699 24.0201C92.5199 23.1334 91.4466 22.4918 90.3499 22.0951C89.2532 21.6751 88.0749 21.4651 86.8149 21.4651C84.3182 21.4651 82.4166 22.2234 81.1099 23.7401C79.8032 25.2334 79.1499 27.3684 79.1499 30.1451C79.1499 32.9218 79.8032 35.0684 81.1099 36.5851C82.4166 38.1018 84.3182 38.8601 86.8149 38.8601C88.0749 38.8601 89.2532 38.6618 90.3499 38.2651C91.4466 37.8451 92.5199 37.1918 93.5699 36.3051L95.0399 39.8751C94.0832 40.8084 92.8582 41.5434 91.3649 42.0801C89.8949 42.5934 88.3316 42.8501 86.6749 42.8501Z" fill="#63BBE9"/>
<path d="M105.104 42.8501C103.331 42.8501 101.791 42.4884 100.484 41.7651C99.1776 41.0418 98.1626 40.0151 97.4393 38.6851C96.716 37.3318 96.3543 35.7451 96.3543 33.9251C96.3543 32.1051 96.716 30.5301 97.4393 29.2001C98.1626 27.8701 99.1776 26.8434 100.484 26.1201C101.791 25.3968 103.331 25.0351 105.104 25.0351C106.878 25.0351 108.418 25.3968 109.724 26.1201C111.031 26.8434 112.046 27.8701 112.769 29.2001C113.493 30.5301 113.854 32.1051 113.854 33.9251C113.854 35.7451 113.493 37.3318 112.769 38.6851C112.046 40.0151 111.031 41.0418 109.724 41.7651C108.418 42.4884 106.878 42.8501 105.104 42.8501ZM105.104 39.5251C106.411 39.5251 107.461 39.0584 108.254 38.1251C109.048 37.1684 109.444 35.7684 109.444 33.9251C109.444 32.0584 109.048 30.6701 108.254 29.7601C107.461 28.8268 106.411 28.3601 105.104 28.3601C103.798 28.3601 102.748 28.8268 101.954 29.7601C101.161 30.6701 100.764 32.0584 100.764 33.9251C100.764 35.7684 101.161 37.1684 101.954 38.1251C102.748 39.0584 103.798 39.5251 105.104 39.5251Z" fill="#63BBE9"/>
<path d="M117.535 42.5001V25.3851H121.805V28.0101C122.319 27.0768 123.03 26.3534 123.94 25.8401C124.85 25.3034 125.9 25.0351 127.09 25.0351C129.657 25.0351 131.337 26.1551 132.13 28.3951C132.667 27.3451 133.437 26.5284 134.44 25.9451C135.444 25.3384 136.587 25.0351 137.87 25.0351C141.72 25.0351 143.645 27.3801 143.645 32.0701V42.5001H139.27V32.2451C139.27 30.9384 139.049 29.9818 138.605 29.3751C138.185 28.7684 137.462 28.4651 136.435 28.4651C135.292 28.4651 134.394 28.8734 133.74 29.6901C133.087 30.4834 132.76 31.5918 132.76 33.0151V42.5001H128.385V32.2451C128.385 30.9384 128.164 29.9818 127.72 29.3751C127.3 28.7684 126.589 28.4651 125.585 28.4651C124.442 28.4651 123.544 28.8734 122.89 29.6901C122.237 30.4834 121.91 31.5918 121.91 33.0151V42.5001H117.535Z" fill="#63BBE9"/>
<path d="M148.229 42.5001V25.3851H152.499V28.0101C153.012 27.0768 153.724 26.3534 154.634 25.8401C155.544 25.3034 156.594 25.0351 157.784 25.0351C160.35 25.0351 162.03 26.1551 162.824 28.3951C163.36 27.3451 164.13 26.5284 165.134 25.9451C166.137 25.3384 167.28 25.0351 168.564 25.0351C172.414 25.0351 174.339 27.3801 174.339 32.0701V42.5001H169.964V32.2451C169.964 30.9384 169.742 29.9818 169.299 29.3751C168.879 28.7684 168.155 28.4651 167.129 28.4651C165.985 28.4651 165.087 28.8734 164.434 29.6901C163.78 30.4834 163.454 31.5918 163.454 33.0151V42.5001H159.079V32.2451C159.079 30.9384 158.857 29.9818 158.414 29.3751C157.994 28.7684 157.282 28.4651 156.279 28.4651C155.135 28.4651 154.237 28.8734 153.584 29.6901C152.93 30.4834 152.604 31.5918 152.604 33.0151V42.5001H148.229Z" fill="#63BBE9"/>
<path d="M184.487 42.8501C183.25 42.8501 182.142 42.6168 181.162 42.1501C180.205 41.6601 179.447 41.0068 178.887 40.1901C178.35 39.3734 178.082 38.4518 178.082 37.4251C178.082 36.1651 178.409 35.1734 179.062 34.4501C179.715 33.7034 180.777 33.1668 182.247 32.8401C183.717 32.5134 185.689 32.3501 188.162 32.3501H189.387V31.6151C189.387 30.4484 189.13 29.6084 188.617 29.0951C188.104 28.5818 187.24 28.3251 186.027 28.3251C185.07 28.3251 184.09 28.4768 183.087 28.7801C182.084 29.0601 181.069 29.5034 180.042 30.1101L178.782 27.1351C179.389 26.7151 180.1 26.3534 180.917 26.0501C181.757 25.7234 182.632 25.4784 183.542 25.3151C184.475 25.1284 185.35 25.0351 186.167 25.0351C188.664 25.0351 190.519 25.6184 191.732 26.7851C192.945 27.9284 193.552 29.7134 193.552 32.1401V42.5001H189.457V39.7701C189.06 40.7268 188.43 41.4851 187.567 42.0451C186.704 42.5818 185.677 42.8501 184.487 42.8501ZM185.397 39.8401C186.54 39.8401 187.485 39.4434 188.232 38.6501C189.002 37.8568 189.387 36.8534 189.387 35.6401V34.8701H188.197C186.004 34.8701 184.475 35.0451 183.612 35.3951C182.772 35.7218 182.352 36.3284 182.352 37.2151C182.352 37.9851 182.62 38.6151 183.157 39.1051C183.694 39.5951 184.44 39.8401 185.397 39.8401Z" fill="#63BBE9"/>
<path d="M197.993 42.5001V25.3851H202.263V28.0451C202.846 27.0651 203.628 26.3184 204.608 25.8051C205.611 25.2918 206.731 25.0351 207.968 25.0351C212.004 25.0351 214.023 27.3801 214.023 32.0701V42.5001H209.648V32.2801C209.648 30.9501 209.391 29.9818 208.878 29.3751C208.388 28.7684 207.618 28.4651 206.568 28.4651C205.284 28.4651 204.258 28.8734 203.488 29.6901C202.741 30.4834 202.368 31.5451 202.368 32.8751V42.5001H197.993Z" fill="#63BBE9"/>
<path d="M225.046 42.8501C223.553 42.8501 222.235 42.4884 221.091 41.7651C219.971 41.0418 219.096 40.0151 218.466 38.6851C217.836 37.3318 217.521 35.7451 217.521 33.9251C217.521 32.0818 217.836 30.5068 218.466 29.2001C219.096 27.8701 219.971 26.8434 221.091 26.1201C222.235 25.3968 223.553 25.0351 225.046 25.0351C226.26 25.0351 227.356 25.3034 228.336 25.8401C229.316 26.3768 230.051 27.0884 230.541 27.9751V17.8251H234.916V42.5001H230.646V39.6651C230.18 40.6451 229.445 41.4268 228.441 42.0101C227.438 42.5701 226.306 42.8501 225.046 42.8501ZM226.271 39.5251C227.578 39.5251 228.628 39.0584 229.421 38.1251C230.215 37.1684 230.611 35.7684 230.611 33.9251C230.611 32.0584 230.215 30.6701 229.421 29.7601C228.628 28.8268 227.578 28.3601 226.271 28.3601C224.965 28.3601 223.915 28.8268 223.121 29.7601C222.328 30.6701 221.931 32.0584 221.931 33.9251C221.931 35.7684 222.328 37.1684 223.121 38.1251C223.915 39.0584 224.965 39.5251 226.271 39.5251Z" fill="#63BBE9"/>
<path d="M246.068 41.1001V33.9951H239.138V30.9151H246.068V24.0201H249.288V30.9151H256.218V33.9951H249.288V41.1001H246.068Z" fill="#63BBE9"/>
<path d="M260.859 42.5001V17.8251H271.569C274.276 17.8251 276.364 18.4784 277.834 19.7851C279.304 21.0684 280.039 22.8768 280.039 25.2101C280.039 27.0534 279.561 28.5818 278.604 29.7951C277.647 30.9851 276.271 31.7901 274.474 32.2101C275.664 32.5834 276.644 33.4818 277.414 34.9051L281.544 42.5001H276.609L272.339 34.6251C271.919 33.8551 271.417 33.3301 270.834 33.0501C270.274 32.7701 269.551 32.6301 268.664 32.6301H265.339V42.5001H260.859ZM265.339 29.3051H270.799C274.066 29.3051 275.699 27.9751 275.699 25.3151C275.699 22.6784 274.066 21.3601 270.799 21.3601H265.339V29.3051Z" fill="#63BBE9"/>
</svg>
