<svg width="295" height="60" viewBox="0 0 295 60" fill="none" xmlns="http://www.w3.org/2000/svg">
<path d="M68.6009 29.9999C64.1579 34.964 57.7011 38.0881 50.5147 38.0881C43.3283 38.0881 36.8716 34.964 32.4286 29.9999C36.8716 25.0357 43.3283 21.9116 50.5147 21.9116C57.7011 21.9116 64.1579 25.0357 68.6009 29.9999Z" fill="white"/>
<path fill-rule="evenodd" clip-rule="evenodd" d="M26.25 46.1763C26.25 32.7753 37.1137 21.9116 50.5147 21.9116C43.3283 21.9116 36.8716 25.0357 32.4286 29.9999C36.8716 34.964 43.3284 38.0881 50.5147 38.0881C57.7011 38.0881 64.1578 34.964 68.6009 29.9999C72.4431 34.2928 74.7794 39.9617 74.7794 46.1763V55.343C74.7794 56.5342 73.8137 57.4999 72.6225 57.4999H28.4069C27.2157 57.4999 26.25 56.5342 26.25 55.343V46.1763ZM68.6009 29.9999C68.6008 29.9999 68.6009 29.9999 68.6009 29.9999V29.9999Z" fill="#84D4F4"/>
<path fill-rule="evenodd" clip-rule="evenodd" d="M41.4133 36.3236C37.9486 34.9207 34.8817 32.7408 32.4286 30C36.8716 25.0358 43.3283 21.9118 50.5147 21.9118C57.7011 21.9118 64.1578 25.0358 68.6009 30C68.6008 30 68.6009 30 68.6009 30C72.4431 25.7071 74.7794 20.0381 74.7794 13.8235V4.65687C74.7794 3.46567 73.8137 2.5 72.6225 2.5L28.4069 2.5C27.2157 2.5 26.25 3.46566 26.25 4.65686L26.25 13.8235C26.25 24.0059 32.5219 32.7234 41.4133 36.3236Z" fill="#3498DB"/>
<path d="M112.68 18.0701V42.5001H107.78V32.1051H97.3152V42.5001H92.4152V18.0701H97.3152V28.1151H107.78V18.0701H112.68Z" fill="#63BBE9"/>
<path d="M126.113 42.8151C124.246 42.8151 122.566 42.4068 121.073 41.5901C119.58 40.7501 118.401 39.5718 117.538 38.0551C116.698 36.5384 116.278 34.7884 116.278 32.8051C116.278 30.8218 116.71 29.0718 117.573 27.5551C118.46 26.0384 119.661 24.8718 121.178 24.0551C122.695 23.2151 124.386 22.7951 126.253 22.7951C128.12 22.7951 129.811 23.2151 131.328 24.0551C132.845 24.8718 134.035 26.0384 134.898 27.5551C135.785 29.0718 136.228 30.8218 136.228 32.8051C136.228 34.7884 135.773 36.5384 134.863 38.0551C133.976 39.5718 132.763 40.7501 131.223 41.5901C129.706 42.4068 128.003 42.8151 126.113 42.8151ZM126.113 38.5451C127 38.5451 127.828 38.3351 128.598 37.9151C129.391 37.4718 130.021 36.8184 130.488 35.9551C130.955 35.0918 131.188 34.0418 131.188 32.8051C131.188 30.9618 130.698 29.5501 129.718 28.5701C128.761 27.5668 127.583 27.0651 126.183 27.0651C124.783 27.0651 123.605 27.5668 122.648 28.5701C121.715 29.5501 121.248 30.9618 121.248 32.8051C121.248 34.6484 121.703 36.0718 122.613 37.0751C123.546 38.0551 124.713 38.5451 126.113 38.5451Z" fill="#63BBE9"/>
<path d="M158.127 23.1101V42.5001H153.192V40.0501C152.562 40.8901 151.734 41.5551 150.707 42.0451C149.704 42.5118 148.607 42.7451 147.417 42.7451C145.901 42.7451 144.559 42.4301 143.392 41.8001C142.226 41.1468 141.304 40.2018 140.627 38.9651C139.974 37.7051 139.647 36.2118 139.647 34.4851V23.1101H144.547V33.7851C144.547 35.3251 144.932 36.5151 145.702 37.3551C146.472 38.1718 147.522 38.5801 148.852 38.5801C150.206 38.5801 151.267 38.1718 152.037 37.3551C152.807 36.5151 153.192 35.3251 153.192 33.7851V23.1101H158.127Z" fill="#63BBE9"/>
<path d="M167.862 26.1201C168.492 25.0934 169.309 24.2884 170.312 23.7051C171.339 23.1218 172.505 22.8301 173.812 22.8301V27.9751H172.517C170.977 27.9751 169.81 28.3368 169.017 29.0601C168.247 29.7834 167.862 31.0434 167.862 32.8401V42.5001H162.962V23.1101H167.862V26.1201Z" fill="#63BBE9"/>
<path d="M184.707 22.7951C186.154 22.7951 187.426 23.0868 188.522 23.6701C189.619 24.2301 190.482 24.9651 191.112 25.8751V23.1101H196.047V42.6401C196.047 44.4368 195.686 46.0351 194.962 47.4351C194.239 48.8584 193.154 49.9784 191.707 50.7951C190.261 51.6351 188.511 52.0551 186.457 52.0551C183.704 52.0551 181.441 51.4134 179.667 50.1301C177.917 48.8468 176.926 47.0968 176.692 44.8801H181.557C181.814 45.7668 182.362 46.4668 183.202 46.9801C184.066 47.5168 185.104 47.7851 186.317 47.7851C187.741 47.7851 188.896 47.3534 189.782 46.4901C190.669 45.6501 191.112 44.3668 191.112 42.6401V39.6301C190.482 40.5401 189.607 41.2984 188.487 41.9051C187.391 42.5118 186.131 42.8151 184.707 42.8151C183.074 42.8151 181.581 42.3951 180.227 41.5551C178.874 40.7151 177.801 39.5368 177.007 38.0201C176.237 36.4801 175.852 34.7184 175.852 32.7351C175.852 30.7751 176.237 29.0368 177.007 27.5201C177.801 26.0034 178.862 24.8368 180.192 24.0201C181.546 23.2034 183.051 22.7951 184.707 22.7951ZM191.112 32.8051C191.112 31.6151 190.879 30.6001 190.412 29.7601C189.946 28.8968 189.316 28.2434 188.522 27.8001C187.729 27.3334 186.877 27.1001 185.967 27.1001C185.057 27.1001 184.217 27.3218 183.447 27.7651C182.677 28.2084 182.047 28.8618 181.557 29.7251C181.091 30.5651 180.857 31.5684 180.857 32.7351C180.857 33.9018 181.091 34.9284 181.557 35.8151C182.047 36.6784 182.677 37.3434 183.447 37.8101C184.241 38.2768 185.081 38.5101 185.967 38.5101C186.877 38.5101 187.729 38.2884 188.522 37.8451C189.316 37.3784 189.946 36.7251 190.412 35.8851C190.879 35.0218 191.112 33.9951 191.112 32.8051Z" fill="#63BBE9"/>
<path d="M205.733 16.6001V42.5001H200.833V16.6001H205.733Z" fill="#63BBE9"/>
<path d="M209.314 32.7351C209.314 30.7751 209.699 29.0368 210.469 27.5201C211.263 26.0034 212.324 24.8368 213.654 24.0201C215.008 23.2034 216.513 22.7951 218.169 22.7951C219.616 22.7951 220.876 23.0868 221.949 23.6701C223.046 24.2534 223.921 24.9884 224.574 25.8751V23.1101H229.509V42.5001H224.574V39.6651C223.944 40.5751 223.069 41.3334 221.949 41.9401C220.853 42.5234 219.581 42.8151 218.134 42.8151C216.501 42.8151 215.008 42.3951 213.654 41.5551C212.324 40.7151 211.263 39.5368 210.469 38.0201C209.699 36.4801 209.314 34.7184 209.314 32.7351ZM224.574 32.8051C224.574 31.6151 224.341 30.6001 223.874 29.7601C223.408 28.8968 222.778 28.2434 221.984 27.8001C221.191 27.3334 220.339 27.1001 219.429 27.1001C218.519 27.1001 217.679 27.3218 216.909 27.7651C216.139 28.2084 215.509 28.8618 215.019 29.7251C214.553 30.5651 214.319 31.5684 214.319 32.7351C214.319 33.9018 214.553 34.9284 215.019 35.8151C215.509 36.6784 216.139 37.3434 216.909 37.8101C217.703 38.2768 218.543 38.5101 219.429 38.5101C220.339 38.5101 221.191 38.2884 221.984 37.8451C222.778 37.3784 223.408 36.7251 223.874 35.8851C224.341 35.0218 224.574 33.9951 224.574 32.8051Z" fill="#63BBE9"/>
<path d="M241.715 42.8151C240.128 42.8151 238.705 42.5351 237.445 41.9751C236.185 41.3918 235.182 40.6101 234.435 39.6301C233.712 38.6501 233.315 37.5651 233.245 36.3751H238.18C238.273 37.1218 238.635 37.7401 239.265 38.2301C239.918 38.7201 240.723 38.9651 241.68 38.9651C242.613 38.9651 243.337 38.7784 243.85 38.4051C244.387 38.0318 244.655 37.5534 244.655 36.9701C244.655 36.3401 244.328 35.8734 243.675 35.5701C243.045 35.2434 242.03 34.8934 240.63 34.5201C239.183 34.1701 237.993 33.8084 237.06 33.4351C236.15 33.0618 235.357 32.4901 234.68 31.7201C234.027 30.9501 233.7 29.9118 233.7 28.6051C233.7 27.5318 234.003 26.5518 234.61 25.6651C235.24 24.7784 236.127 24.0784 237.27 23.5651C238.437 23.0518 239.802 22.7951 241.365 22.7951C243.675 22.7951 245.518 23.3784 246.895 24.5451C248.272 25.6884 249.03 27.2401 249.17 29.2001H244.48C244.41 28.4301 244.083 27.8234 243.5 27.3801C242.94 26.9134 242.182 26.6801 241.225 26.6801C240.338 26.6801 239.65 26.8434 239.16 27.1701C238.693 27.4968 238.46 27.9518 238.46 28.5351C238.46 29.1884 238.787 29.6901 239.44 30.0401C240.093 30.3668 241.108 30.7051 242.485 31.0551C243.885 31.4051 245.04 31.7668 245.95 32.1401C246.86 32.5134 247.642 33.0968 248.295 33.8901C248.972 34.6601 249.322 35.6868 249.345 36.9701C249.345 38.0901 249.03 39.0934 248.4 39.9801C247.793 40.8668 246.907 41.5668 245.74 42.0801C244.597 42.5701 243.255 42.8151 241.715 42.8151Z" fill="#63BBE9"/>
<path d="M260.787 42.8151C259.201 42.8151 257.777 42.5351 256.517 41.9751C255.257 41.3918 254.254 40.6101 253.507 39.6301C252.784 38.6501 252.387 37.5651 252.317 36.3751H257.252C257.346 37.1218 257.707 37.7401 258.337 38.2301C258.991 38.7201 259.796 38.9651 260.752 38.9651C261.686 38.9651 262.409 38.7784 262.922 38.4051C263.459 38.0318 263.727 37.5534 263.727 36.9701C263.727 36.3401 263.401 35.8734 262.747 35.5701C262.117 35.2434 261.102 34.8934 259.702 34.5201C258.256 34.1701 257.066 33.8084 256.132 33.4351C255.222 33.0618 254.429 32.4901 253.752 31.7201C253.099 30.9501 252.772 29.9118 252.772 28.6051C252.772 27.5318 253.076 26.5518 253.682 25.6651C254.312 24.7784 255.199 24.0784 256.342 23.5651C257.509 23.0518 258.874 22.7951 260.437 22.7951C262.747 22.7951 264.591 23.3784 265.967 24.5451C267.344 25.6884 268.102 27.2401 268.242 29.2001H263.552C263.482 28.4301 263.156 27.8234 262.572 27.3801C262.012 26.9134 261.254 26.6801 260.297 26.6801C259.411 26.6801 258.722 26.8434 258.232 27.1701C257.766 27.4968 257.532 27.9518 257.532 28.5351C257.532 29.1884 257.859 29.6901 258.512 30.0401C259.166 30.3668 260.181 30.7051 261.557 31.0551C262.957 31.4051 264.112 31.7668 265.022 32.1401C265.932 32.5134 266.714 33.0968 267.367 33.8901C268.044 34.6601 268.394 35.6868 268.417 36.9701C268.417 38.0901 268.102 39.0934 267.472 39.9801C266.866 40.8668 265.979 41.5668 264.812 42.0801C263.669 42.5701 262.327 42.8151 260.787 42.8151Z" fill="#63BBE9"/>
</svg>
