<svg width="295" height="60" viewBox="0 0 295 60" fill="none" xmlns="http://www.w3.org/2000/svg">
<path d="M72.847 27.8976C73.8748 24.0623 77.8172 20.1199 81.6525 19.0921L105.564 12.6841C109.399 11.6563 111.675 13.9322 110.647 17.7676L104.239 41.6788C103.211 45.5141 99.269 49.4565 95.4337 50.4843L71.5224 56.8923C67.6871 57.9201 65.4112 55.6442 66.439 51.8088L72.847 27.8976Z" fill="#84D4F4"/>
<path d="M63.261 18.3117C64.2888 14.4763 68.2312 10.534 72.0666 9.50614L95.9778 3.09817C99.8131 2.07034 102.089 4.34628 101.061 8.18162L94.6533 32.0928C93.6255 35.9282 89.6831 39.8705 85.8477 40.8984L61.9365 47.3063C58.1012 48.3342 55.8252 46.0582 56.8531 42.2229L63.261 18.3117Z" fill="#63BBE9"/>
<path d="M133.155 37.7664H140.995V42.3864H127.17V17.8164H133.155V37.7664Z" fill="#63BBE9"/>
<path d="M141.96 32.5864C141.96 30.5797 142.333 28.8181 143.08 27.3014C143.85 25.7847 144.888 24.6181 146.195 23.8014C147.502 22.9847 148.96 22.5764 150.57 22.5764C151.947 22.5764 153.148 22.8564 154.175 23.4164C155.225 23.9764 156.03 24.7114 156.59 25.6214V22.8564H162.575V42.3864H156.59V39.6214C156.007 40.5314 155.19 41.2664 154.14 41.8264C153.113 42.3864 151.912 42.6664 150.535 42.6664C148.948 42.6664 147.502 42.2581 146.195 41.4414C144.888 40.6014 143.85 39.4231 143.08 37.9064C142.333 36.3664 141.96 34.5931 141.96 32.5864ZM156.59 32.6214C156.59 31.1281 156.17 29.9497 155.33 29.0864C154.513 28.2231 153.51 27.7914 152.32 27.7914C151.13 27.7914 150.115 28.2231 149.275 29.0864C148.458 29.9264 148.05 31.0931 148.05 32.5864C148.05 34.0797 148.458 35.2697 149.275 36.1564C150.115 37.0197 151.13 37.4514 152.32 37.4514C153.51 37.4514 154.513 37.0197 155.33 36.1564C156.17 35.2931 156.59 34.1147 156.59 32.6214Z" fill="#63BBE9"/>
<path d="M186.155 22.8564L173.905 51.6614H167.465L171.945 41.7214L164 22.8564H170.685L175.2 35.0714L179.68 22.8564H186.155Z" fill="#63BBE9"/>
<path d="M206.029 32.3064C206.029 32.8664 205.994 33.4497 205.924 34.0564H192.379C192.472 35.2697 192.857 36.2031 193.534 36.8564C194.234 37.4864 195.086 37.8014 196.089 37.8014C197.582 37.8014 198.621 37.1714 199.204 35.9114H205.574C205.247 37.1947 204.652 38.3497 203.789 39.3764C202.949 40.4031 201.887 41.2081 200.604 41.7914C199.321 42.3747 197.886 42.6664 196.299 42.6664C194.386 42.6664 192.682 42.2581 191.189 41.4414C189.696 40.6247 188.529 39.4581 187.689 37.9414C186.849 36.4247 186.429 34.6514 186.429 32.6214C186.429 30.5914 186.837 28.8181 187.654 27.3014C188.494 25.7847 189.661 24.6181 191.154 23.8014C192.647 22.9847 194.362 22.5764 196.299 22.5764C198.189 22.5764 199.869 22.9731 201.339 23.7664C202.809 24.5597 203.952 25.6914 204.769 27.1614C205.609 28.6314 206.029 30.3464 206.029 32.3064ZM199.904 30.7314C199.904 29.7047 199.554 28.8881 198.854 28.2814C198.154 27.6747 197.279 27.3714 196.229 27.3714C195.226 27.3714 194.374 27.6631 193.674 28.2464C192.997 28.8297 192.577 29.6581 192.414 30.7314H199.904Z" fill="#63BBE9"/>
<path d="M214.471 26.1114C215.171 25.0381 216.046 24.1981 217.096 23.5914C218.146 22.9614 219.313 22.6464 220.596 22.6464V28.9814H218.951C217.458 28.9814 216.338 29.3081 215.591 29.9614C214.845 30.5914 214.471 31.7114 214.471 33.3214V42.3864H208.486V22.8564H214.471V26.1114Z" fill="#63BBE9"/>
<path d="M230.702 42.6664C228.999 42.6664 227.482 42.3747 226.152 41.7914C224.822 41.2081 223.772 40.4147 223.002 39.4114C222.232 38.3847 221.8 37.2414 221.707 35.9814H227.622C227.692 36.6581 228.007 37.2064 228.567 37.6264C229.127 38.0464 229.815 38.2564 230.632 38.2564C231.379 38.2564 231.95 38.1164 232.347 37.8364C232.767 37.5331 232.977 37.1481 232.977 36.6814C232.977 36.1214 232.685 35.7131 232.102 35.4564C231.519 35.1764 230.574 34.8731 229.267 34.5464C227.867 34.2197 226.7 33.8814 225.767 33.5314C224.834 33.1581 224.029 32.5864 223.352 31.8164C222.675 31.0231 222.337 29.9614 222.337 28.6314C222.337 27.5114 222.64 26.4964 223.247 25.5864C223.877 24.6531 224.787 23.9181 225.977 23.3814C227.19 22.8447 228.625 22.5764 230.282 22.5764C232.732 22.5764 234.657 23.1831 236.057 24.3964C237.48 25.6097 238.297 27.2197 238.507 29.2264H232.977C232.884 28.5497 232.58 28.0131 232.067 27.6164C231.577 27.2197 230.924 27.0214 230.107 27.0214C229.407 27.0214 228.87 27.1614 228.497 27.4414C228.124 27.6981 227.937 28.0597 227.937 28.5264C227.937 29.0864 228.229 29.5064 228.812 29.7864C229.419 30.0664 230.352 30.3464 231.612 30.6264C233.059 30.9997 234.237 31.3731 235.147 31.7464C236.057 32.0964 236.85 32.6797 237.527 33.4964C238.227 34.2897 238.589 35.3631 238.612 36.7164C238.612 37.8597 238.285 38.8864 237.632 39.7964C237.002 40.6831 236.08 41.3831 234.867 41.8964C233.677 42.4097 232.289 42.6664 230.702 42.6664Z" fill="#63BBE9"/>
</svg>
