<svg width="295" height="60" viewBox="0 0 295 60" fill="none" xmlns="http://www.w3.org/2000/svg">
<rect x="41.875" y="24" width="12" height="12" fill="#3498DB"/>
<rect x="77.875" y="36" width="12" height="12" transform="rotate(180 77.875 36)" fill="#2677BC"/>
<path d="M53.8751 24L65.8751 12V24L53.8751 36V24Z" fill="#D6F6FD"/>
<path d="M65.875 36L53.875 48L53.875 36L65.875 24L65.875 36Z" fill="#AEEAFB"/>
<path d="M41.875 24L65.875 0V12L53.875 24H41.875Z" fill="#84D4F4"/>
<path d="M77.875 36L53.875 60L53.875 48L65.875 36L77.875 36Z" fill="#63BBE9"/>
<path d="M104.01 42.85C102.12 42.85 100.288 42.5817 98.515 42.045C96.765 41.5083 95.3766 40.7966 94.35 39.91L95.925 36.375C96.9283 37.1683 98.1533 37.8216 99.6 38.335C101.07 38.825 102.54 39.07 104.01 39.07C105.83 39.07 107.183 38.7783 108.07 38.195C108.98 37.6117 109.435 36.8417 109.435 35.885C109.435 35.185 109.178 34.6133 108.665 34.17C108.175 33.7033 107.545 33.3416 106.775 33.085C106.005 32.8283 104.955 32.5366 103.625 32.21C101.758 31.7666 100.242 31.3233 99.075 30.88C97.9316 30.4366 96.94 29.7483 96.1 28.815C95.2833 27.8583 94.875 26.575 94.875 24.965C94.875 23.6116 95.2366 22.3866 95.96 21.29C96.7066 20.17 97.815 19.2833 99.285 18.63C100.778 17.9766 102.598 17.65 104.745 17.65C106.238 17.65 107.708 17.8366 109.155 18.21C110.602 18.5833 111.85 19.12 112.9 19.82L111.465 23.355C110.392 22.725 109.272 22.2466 108.105 21.92C106.938 21.5933 105.807 21.43 104.71 21.43C102.913 21.43 101.572 21.7333 100.685 22.34C99.8216 22.9466 99.39 23.7516 99.39 24.755C99.39 25.455 99.635 26.0266 100.125 26.47C100.638 26.9133 101.28 27.2633 102.05 27.52C102.82 27.7766 103.87 28.0683 105.2 28.395C107.02 28.815 108.513 29.2583 109.68 29.725C110.847 30.1683 111.838 30.8566 112.655 31.79C113.495 32.7233 113.915 33.9833 113.915 35.57C113.915 36.9233 113.542 38.1483 112.795 39.245C112.072 40.3417 110.963 41.2167 109.47 41.87C107.977 42.5233 106.157 42.85 104.01 42.85Z" fill="#63BBE9"/>
<path d="M118.007 23.81H122.382V42.5H118.007V23.81ZM120.212 20.73C119.418 20.73 118.753 20.485 118.217 19.995C117.68 19.4816 117.412 18.8516 117.412 18.105C117.412 17.3583 117.68 16.74 118.217 16.25C118.753 15.7366 119.418 15.48 120.212 15.48C121.005 15.48 121.67 15.725 122.207 16.215C122.743 16.6816 123.012 17.2766 123.012 18C123.012 18.77 122.743 19.4233 122.207 19.96C121.693 20.4733 121.028 20.73 120.212 20.73Z" fill="#63BBE9"/>
<path d="M133.899 42.745C132.382 42.745 130.901 42.5466 129.454 42.15C128.007 41.7533 126.852 41.2517 125.989 40.645L127.669 37.32C128.509 37.88 129.512 38.335 130.679 38.685C131.869 39.0117 133.036 39.175 134.179 39.175C136.792 39.175 138.099 38.4867 138.099 37.11C138.099 36.4566 137.761 36.0017 137.084 35.745C136.431 35.4883 135.369 35.2433 133.899 35.01C132.359 34.7766 131.099 34.5083 130.119 34.205C129.162 33.9016 128.322 33.3766 127.599 32.63C126.899 31.86 126.549 30.7983 126.549 29.445C126.549 27.6716 127.284 26.26 128.754 25.21C130.247 24.1366 132.254 23.6 134.774 23.6C136.057 23.6 137.341 23.7516 138.624 24.055C139.907 24.335 140.957 24.72 141.774 25.21L140.094 28.535C138.507 27.6016 136.722 27.135 134.739 27.135C133.456 27.135 132.476 27.3333 131.799 27.73C131.146 28.1033 130.819 28.605 130.819 29.235C130.819 29.935 131.169 30.4366 131.869 30.74C132.592 31.02 133.701 31.2883 135.194 31.545C136.687 31.7783 137.912 32.0466 138.869 32.35C139.826 32.6533 140.642 33.1666 141.319 33.89C142.019 34.6133 142.369 35.64 142.369 36.97C142.369 38.72 141.611 40.12 140.094 41.17C138.577 42.22 136.512 42.745 133.899 42.745Z" fill="#63BBE9"/>
<path d="M163.295 23.81L154.545 44.005C153.728 46.035 152.736 47.4583 151.57 48.275C150.403 49.115 148.991 49.535 147.335 49.535C146.401 49.535 145.48 49.3833 144.57 49.08C143.66 48.7767 142.913 48.3567 142.33 47.82L144.08 44.6C144.5 44.9967 144.99 45.3117 145.55 45.545C146.133 45.7783 146.716 45.895 147.3 45.895C148.07 45.895 148.7 45.6967 149.19 45.3C149.703 44.9033 150.17 44.2383 150.59 43.305L150.905 42.57L142.75 23.81H147.3L153.18 37.635L159.095 23.81H163.295Z" fill="#63BBE9"/>
<path d="M176.389 23.6C178.209 23.6 179.831 23.9966 181.254 24.79C182.701 25.5833 183.832 26.7033 184.649 28.15C185.466 29.5966 185.874 31.265 185.874 33.155C185.874 35.045 185.466 36.725 184.649 38.195C183.832 39.6417 182.701 40.7617 181.254 41.555C179.831 42.3483 178.209 42.745 176.389 42.745C173.869 42.745 171.874 41.905 170.404 40.225V49.29H166.029V23.81H170.194V26.26C170.917 25.3733 171.804 24.7083 172.854 24.265C173.927 23.8216 175.106 23.6 176.389 23.6ZM175.899 39C177.509 39 178.827 38.4633 179.854 37.39C180.904 36.3166 181.429 34.905 181.429 33.155C181.429 31.405 180.904 29.9933 179.854 28.92C178.827 27.8466 177.509 27.31 175.899 27.31C174.849 27.31 173.904 27.555 173.064 28.045C172.224 28.5116 171.559 29.1883 171.069 30.075C170.579 30.9616 170.334 31.9883 170.334 33.155C170.334 34.3216 170.579 35.3483 171.069 36.235C171.559 37.1216 172.224 37.81 173.064 38.3C173.904 38.7666 174.849 39 175.899 39Z" fill="#63BBE9"/>
<path d="M200.628 23.6C202.985 23.6 204.875 24.2883 206.298 25.665C207.722 27.0416 208.433 29.0833 208.433 31.79V42.5H204.058V32.35C204.058 30.7166 203.673 29.4916 202.903 28.675C202.133 27.835 201.037 27.415 199.613 27.415C198.003 27.415 196.732 27.905 195.798 28.885C194.865 29.8416 194.398 31.23 194.398 33.05V42.5H190.023V16.53H194.398V25.98C195.122 25.21 196.008 24.6266 197.058 24.23C198.132 23.81 199.322 23.6 200.628 23.6Z" fill="#63BBE9"/>
<path d="M232.078 23.81V42.5H227.913V40.12C227.213 40.96 226.338 41.6133 225.288 42.08C224.238 42.5233 223.107 42.745 221.893 42.745C219.397 42.745 217.425 42.0567 215.978 40.68C214.555 39.28 213.843 37.215 213.843 34.485V23.81H218.218V33.89C218.218 35.57 218.592 36.83 219.338 37.67C220.108 38.4867 221.193 38.895 222.593 38.895C224.157 38.895 225.393 38.4167 226.303 37.46C227.237 36.48 227.703 35.08 227.703 33.26V23.81H232.078Z" fill="#63BBE9"/>
<path d="M243.581 42.745C242.065 42.745 240.583 42.5466 239.136 42.15C237.69 41.7533 236.535 41.2517 235.671 40.645L237.351 37.32C238.191 37.88 239.195 38.335 240.361 38.685C241.551 39.0117 242.718 39.175 243.861 39.175C246.475 39.175 247.781 38.4867 247.781 37.11C247.781 36.4566 247.443 36.0017 246.766 35.745C246.113 35.4883 245.051 35.2433 243.581 35.01C242.041 34.7766 240.781 34.5083 239.801 34.205C238.845 33.9016 238.005 33.3766 237.281 32.63C236.581 31.86 236.231 30.7983 236.231 29.445C236.231 27.6716 236.966 26.26 238.436 25.21C239.93 24.1366 241.936 23.6 244.456 23.6C245.74 23.6 247.023 23.7516 248.306 24.055C249.59 24.335 250.64 24.72 251.456 25.21L249.776 28.535C248.19 27.6016 246.405 27.135 244.421 27.135C243.138 27.135 242.158 27.3333 241.481 27.73C240.828 28.1033 240.501 28.605 240.501 29.235C240.501 29.935 240.851 30.4366 241.551 30.74C242.275 31.02 243.383 31.2883 244.876 31.545C246.37 31.7783 247.595 32.0466 248.551 32.35C249.508 32.6533 250.325 33.1666 251.001 33.89C251.701 34.6133 252.051 35.64 252.051 36.97C252.051 38.72 251.293 40.12 249.776 41.17C248.26 42.22 246.195 42.745 243.581 42.745Z" fill="#63BBE9"/>
</svg>
