<svg width="335" height="48" viewBox="0 0 335 48" fill="none" xmlns="http://www.w3.org/2000/svg">
<path d="M20 1H315C325.493 1 334 9.50659 334 20V47H20C9.50659 47 1 38.4934 1 28V20C1 9.50659 9.50659 1 20 1Z" fill="#2ECC71" fill-opacity="0.6"/>
<path d="M20 1H315C325.493 1 334 9.50659 334 20V47H20C9.50659 47 1 38.4934 1 28V20C1 9.50659 9.50659 1 20 1Z" stroke="#5EE088" stroke-width="2"/>
<path d="M29.9609 22.6719L32.25 17.625H34.9219L31.2109 24.8828V29H28.7188V24.8828L25 17.625H27.6797L29.9609 22.6719ZM46.9591 23.5469C46.9591 24.7135 46.7533 25.7161 46.3419 26.5547C45.9304 27.388 45.3601 28.0312 44.6309 28.4844C43.9018 28.9323 43.058 29.1562 42.0997 29.1562C41.1414 29.1562 40.2924 28.9323 39.5528 28.4844C38.8184 28.0312 38.2429 27.388 37.8263 26.5547C37.4096 25.7161 37.2013 24.7135 37.2013 23.5469V23.0859C37.2013 21.9193 37.407 20.9193 37.8184 20.0859C38.2351 19.2474 38.8106 18.6016 39.545 18.1484C40.2794 17.6953 41.1257 17.4688 42.0841 17.4688C43.0424 17.4688 43.8861 17.6953 44.6153 18.1484C45.3497 18.6016 45.9226 19.2474 46.3341 20.0859C46.7507 20.9193 46.9591 21.9193 46.9591 23.0859V23.5469ZM44.4825 23.0703C44.4825 22.2891 44.3888 21.6328 44.2013 21.1016C44.0138 20.5703 43.7403 20.1693 43.3809 19.8984C43.0216 19.6276 42.5893 19.4922 42.0841 19.4922C41.5684 19.4922 41.1335 19.6276 40.7794 19.8984C40.4252 20.1693 40.1544 20.5703 39.9669 21.1016C39.7846 21.6328 39.6934 22.2891 39.6934 23.0703V23.5469C39.6934 24.3229 39.7872 24.9792 39.9747 25.5156C40.1622 26.0469 40.433 26.4505 40.7872 26.7266C41.1466 27.0026 41.5841 27.1406 42.0997 27.1406C42.6049 27.1406 43.0346 27.0026 43.3888 26.7266C43.7481 26.4505 44.019 26.0469 44.2013 25.5156C44.3888 24.9792 44.4825 24.3229 44.4825 23.5469V23.0703ZM59.2072 17.625V25.1016C59.2072 25.9818 59.0197 26.724 58.6447 27.3281C58.2697 27.9323 57.7515 28.388 57.09 28.6953C56.4338 29.0026 55.6785 29.1562 54.8244 29.1562C53.965 29.1562 53.202 29.0026 52.5353 28.6953C51.8739 28.388 51.3556 27.9323 50.9806 27.3281C50.6108 26.724 50.4259 25.9818 50.4259 25.1016V17.625H52.8869V25.1016C52.8869 25.5911 52.9624 25.9896 53.1134 26.2969C53.2645 26.599 53.4858 26.8229 53.7775 26.9688C54.0692 27.1094 54.4181 27.1797 54.8244 27.1797C55.2358 27.1797 55.5848 27.1094 55.8713 26.9688C56.1577 26.8229 56.3739 26.599 56.5197 26.2969C56.6707 25.9896 56.7463 25.5911 56.7463 25.1016V17.625H59.2072ZM67.2756 17.625C68.1558 17.625 68.911 17.7578 69.5412 18.0234C70.1767 18.2839 70.6636 18.6693 71.0022 19.1797C71.3407 19.6849 71.51 20.3125 71.51 21.0625C71.51 21.6875 71.4058 22.2188 71.1975 22.6562C70.9944 23.0938 70.7079 23.4557 70.3381 23.7422C69.9683 24.0286 69.5334 24.2604 69.0334 24.4375L68.2522 24.8828H64.6037L64.5881 22.8984H67.2678C67.6636 22.8984 67.9944 22.8333 68.26 22.7031C68.5256 22.5677 68.7235 22.3776 68.8537 22.1328C68.984 21.888 69.0491 21.599 69.0491 21.2656C69.0491 20.7552 68.9032 20.3516 68.6116 20.0547C68.3251 19.7578 67.8798 19.6094 67.2756 19.6094H65.4475V29H62.9944V17.625H67.2756ZM66.7287 23.9453L69.3225 23.9297L71.9241 28.8828V29H69.2912L66.7287 23.9453ZM88.6547 24.1719H82.8109V22.1953H88.6547V24.1719ZM83.5375 29H81.0766V17.625H83.5375V29ZM90.4125 29H87.9594V17.625H90.4125V29ZM101.973 29H95.9653V27.0234H101.973V29ZM96.7544 29H94.2934V17.625H96.7544V29ZM101.192 24.1094H95.9653V22.1953H101.192V24.1094ZM101.965 19.6094H95.9653V17.625H101.965V19.6094ZM106.893 29H104.276L108.503 17.625H110.159L109.924 19.7812L106.893 29ZM109.37 19.7812L109.112 17.625H110.776L115.026 29H112.409L109.37 19.7812ZM112.331 26.7344H106.299V24.75H112.331V26.7344ZM125.344 29H119.633V27.0234H125.344V29ZM120.415 29H117.962V17.625H120.415V29ZM132.077 29H129.624V17.625H132.077V29ZM135.53 19.6094H126.217V17.625H135.53V19.6094ZM146.317 24.1719H140.473V22.1953H146.317V24.1719ZM141.2 29H138.739V17.625H141.2V29ZM148.075 29H145.622V17.625H148.075V29ZM160.485 29H158.032V17.625H160.485V29ZM170.398 26C170.398 25.7448 170.343 25.5234 170.233 25.3359C170.124 25.1484 169.913 24.9714 169.601 24.8047C169.293 24.6328 168.838 24.4505 168.233 24.2578C167.723 24.0911 167.236 23.9036 166.773 23.6953C166.314 23.4818 165.908 23.2344 165.554 22.9531C165.2 22.6719 164.921 22.3438 164.718 21.9688C164.515 21.5938 164.413 21.1562 164.413 20.6562C164.413 20.0156 164.595 19.4583 164.96 18.9844C165.325 18.5052 165.825 18.1328 166.46 17.8672C167.101 17.6016 167.832 17.4688 168.655 17.4688C169.499 17.4688 170.236 17.6172 170.866 17.9141C171.496 18.2109 171.983 18.625 172.327 19.1562C172.676 19.6823 172.851 20.2917 172.851 20.9844H170.405C170.405 20.6771 170.34 20.4062 170.21 20.1719C170.08 19.9323 169.882 19.7474 169.616 19.6172C169.356 19.4818 169.023 19.4141 168.616 19.4141C168.226 19.4141 167.9 19.4714 167.64 19.5859C167.379 19.7005 167.184 19.8516 167.054 20.0391C166.929 20.2266 166.866 20.4375 166.866 20.6719C166.866 20.9167 166.952 21.1302 167.124 21.3125C167.296 21.4948 167.546 21.6641 167.874 21.8203C168.202 21.9714 168.601 22.1198 169.069 22.2656C169.898 22.5156 170.593 22.8099 171.155 23.1484C171.718 23.487 172.14 23.888 172.421 24.3516C172.707 24.8099 172.851 25.3542 172.851 25.9844C172.851 26.651 172.679 27.2214 172.335 27.6953C171.996 28.1693 171.517 28.5312 170.898 28.7812C170.278 29.0312 169.549 29.1562 168.71 29.1562C168.137 29.1562 167.575 29.0833 167.023 28.9375C166.476 28.7865 165.978 28.5573 165.53 28.25C165.088 27.9375 164.733 27.5443 164.468 27.0703C164.202 26.5964 164.069 26.0339 164.069 25.3828H166.53C166.53 25.7214 166.58 26.0078 166.679 26.2422C166.783 26.4714 166.929 26.6589 167.116 26.8047C167.309 26.9505 167.538 27.0573 167.804 27.125C168.075 27.1875 168.377 27.2188 168.71 27.2188C169.101 27.2188 169.418 27.1667 169.663 27.0625C169.913 26.9531 170.098 26.8073 170.218 26.625C170.338 26.4375 170.398 26.2292 170.398 26ZM191.652 23.5469C191.652 24.7135 191.446 25.7161 191.034 26.5547C190.623 27.388 190.053 28.0312 189.323 28.4844C188.594 28.9323 187.751 29.1562 186.792 29.1562C185.834 29.1562 184.985 28.9323 184.245 28.4844C183.511 28.0312 182.935 27.388 182.519 26.5547C182.102 25.7161 181.894 24.7135 181.894 23.5469V23.0859C181.894 21.9193 182.099 20.9193 182.511 20.0859C182.928 19.2474 183.503 18.6016 184.238 18.1484C184.972 17.6953 185.818 17.4688 186.777 17.4688C187.735 17.4688 188.579 17.6953 189.308 18.1484C190.042 18.6016 190.615 19.2474 191.027 20.0859C191.443 20.9193 191.652 21.9193 191.652 23.0859V23.5469ZM189.175 23.0703C189.175 22.2891 189.081 21.6328 188.894 21.1016C188.706 20.5703 188.433 20.1693 188.073 19.8984C187.714 19.6276 187.282 19.4922 186.777 19.4922C186.261 19.4922 185.826 19.6276 185.472 19.8984C185.118 20.1693 184.847 20.5703 184.659 21.1016C184.477 21.6328 184.386 22.2891 184.386 23.0703V23.5469C184.386 24.3229 184.48 24.9792 184.667 25.5156C184.855 26.0469 185.126 26.4505 185.48 26.7266C185.839 27.0026 186.277 27.1406 186.792 27.1406C187.297 27.1406 187.727 27.0026 188.081 26.7266C188.441 26.4505 188.711 26.0469 188.894 25.5156C189.081 24.9792 189.175 24.3229 189.175 23.5469V23.0703ZM203.9 17.625V25.1016C203.9 25.9818 203.712 26.724 203.337 27.3281C202.962 27.9323 202.444 28.388 201.783 28.6953C201.126 29.0026 200.371 29.1562 199.517 29.1562C198.658 29.1562 197.894 29.0026 197.228 28.6953C196.566 28.388 196.048 27.9323 195.673 27.3281C195.303 26.724 195.118 25.9818 195.118 25.1016V17.625H197.579V25.1016C197.579 25.5911 197.655 25.9896 197.806 26.2969C197.957 26.599 198.178 26.8229 198.47 26.9688C198.762 27.1094 199.111 27.1797 199.517 27.1797C199.928 27.1797 200.277 27.1094 200.564 26.9688C200.85 26.8229 201.066 26.599 201.212 26.2969C201.363 25.9896 201.439 25.5911 201.439 25.1016V17.625H203.9ZM211.968 17.625C212.848 17.625 213.604 17.7578 214.234 18.0234C214.869 18.2839 215.356 18.6693 215.695 19.1797C216.033 19.6849 216.202 20.3125 216.202 21.0625C216.202 21.6875 216.098 22.2188 215.89 22.6562C215.687 23.0938 215.4 23.4557 215.031 23.7422C214.661 24.0286 214.226 24.2604 213.726 24.4375L212.945 24.8828H209.296L209.281 22.8984H211.96C212.356 22.8984 212.687 22.8333 212.952 22.7031C213.218 22.5677 213.416 22.3776 213.546 22.1328C213.676 21.888 213.742 21.599 213.742 21.2656C213.742 20.7552 213.596 20.3516 213.304 20.0547C213.018 19.7578 212.572 19.6094 211.968 19.6094H210.14V29H207.687V17.625H211.968ZM211.421 23.9453L214.015 23.9297L216.617 28.8828V29H213.984L211.421 23.9453ZM227.386 25.0391V23.0625H230.246C230.678 23.0625 231.027 22.9922 231.292 22.8516C231.563 22.7109 231.761 22.5182 231.886 22.2734C232.011 22.0286 232.074 21.7474 232.074 21.4297C232.074 21.112 232.011 20.8151 231.886 20.5391C231.761 20.2578 231.563 20.0339 231.292 19.8672C231.027 19.6953 230.678 19.6094 230.246 19.6094H228.23V29H225.769V17.625H230.246C231.147 17.625 231.92 17.7891 232.566 18.1172C233.212 18.4453 233.707 18.8958 234.05 19.4688C234.394 20.0365 234.566 20.6849 234.566 21.4141C234.566 22.1536 234.394 22.7943 234.05 23.3359C233.707 23.8776 233.212 24.2969 232.566 24.5938C231.92 24.8906 231.147 25.0391 230.246 25.0391H227.386ZM242.337 17.625C243.218 17.625 243.973 17.7578 244.603 18.0234C245.239 18.2839 245.726 18.6693 246.064 19.1797C246.403 19.6849 246.572 20.3125 246.572 21.0625C246.572 21.6875 246.468 22.2188 246.259 22.6562C246.056 23.0938 245.77 23.4557 245.4 23.7422C245.03 24.0286 244.595 24.2604 244.095 24.4375L243.314 24.8828H239.666L239.65 22.8984H242.33C242.726 22.8984 243.056 22.8333 243.322 22.7031C243.587 22.5677 243.785 22.3776 243.916 22.1328C244.046 21.888 244.111 21.599 244.111 21.2656C244.111 20.7552 243.965 20.3516 243.673 20.0547C243.387 19.7578 242.942 19.6094 242.337 19.6094H240.509V29H238.056V17.625H242.337ZM241.791 23.9453L244.384 23.9297L246.986 28.8828V29H244.353L241.791 23.9453ZM252.828 29H250.375V17.625H252.828V29ZM266.279 23.5469C266.279 24.7135 266.073 25.7161 265.662 26.5547C265.25 27.388 264.68 28.0312 263.951 28.4844C263.222 28.9323 262.378 29.1562 261.42 29.1562C260.461 29.1562 259.612 28.9323 258.873 28.4844C258.138 28.0312 257.563 27.388 257.146 26.5547C256.73 25.7161 256.521 24.7135 256.521 23.5469V23.0859C256.521 21.9193 256.727 20.9193 257.138 20.0859C257.555 19.2474 258.131 18.6016 258.865 18.1484C259.599 17.6953 260.446 17.4688 261.404 17.4688C262.362 17.4688 263.206 17.6953 263.935 18.1484C264.67 18.6016 265.243 19.2474 265.654 20.0859C266.071 20.9193 266.279 21.9193 266.279 23.0859V23.5469ZM263.803 23.0703C263.803 22.2891 263.709 21.6328 263.521 21.1016C263.334 20.5703 263.06 20.1693 262.701 19.8984C262.342 19.6276 261.909 19.4922 261.404 19.4922C260.888 19.4922 260.454 19.6276 260.099 19.8984C259.745 20.1693 259.474 20.5703 259.287 21.1016C259.105 21.6328 259.013 22.2891 259.013 23.0703V23.5469C259.013 24.3229 259.107 24.9792 259.295 25.5156C259.482 26.0469 259.753 26.4505 260.107 26.7266C260.467 27.0026 260.904 27.1406 261.42 27.1406C261.925 27.1406 262.355 27.0026 262.709 26.7266C263.068 26.4505 263.339 26.0469 263.521 25.5156C263.709 24.9792 263.803 24.3229 263.803 23.5469V23.0703ZM274.129 17.625C275.009 17.625 275.764 17.7578 276.394 18.0234C277.03 18.2839 277.517 18.6693 277.855 19.1797C278.194 19.6849 278.363 20.3125 278.363 21.0625C278.363 21.6875 278.259 22.2188 278.051 22.6562C277.848 23.0938 277.561 23.4557 277.191 23.7422C276.821 24.0286 276.387 24.2604 275.887 24.4375L275.105 24.8828H271.457L271.441 22.8984H274.121C274.517 22.8984 274.848 22.8333 275.113 22.7031C275.379 22.5677 275.577 22.3776 275.707 22.1328C275.837 21.888 275.902 21.599 275.902 21.2656C275.902 20.7552 275.756 20.3516 275.465 20.0547C275.178 19.7578 274.733 19.6094 274.129 19.6094H272.301V29H269.848V17.625H274.129ZM273.582 23.9453L276.176 23.9297L278.777 28.8828V29H276.144L273.582 23.9453ZM284.619 29H282.166V17.625H284.619V29ZM293.844 29H291.391V17.625H293.844V29ZM297.297 19.6094H287.984V17.625H297.297V19.6094ZM304.615 22.6719L306.904 17.625H309.576L305.865 24.8828V29H303.373V24.8828L299.654 17.625H302.334L304.615 22.6719Z" fill="#FAFAFA"/>
</svg>
