<svg width="87" height="87" viewBox="0 0 87 87" fill="none" xmlns="http://www.w3.org/2000/svg">
<rect width="87" height="87" rx="20" fill="#5EE088"/>
<path fill-rule="evenodd" clip-rule="evenodd" d="M51 41.625H45.375V36C45.375 34.9631 44.535 34.125 43.5 34.125C42.465 34.125 41.625 34.9631 41.625 36V43.5C41.625 44.5369 42.465 45.375 43.5 45.375H51C52.0369 45.375 52.875 44.5369 52.875 43.5C52.875 42.4631 52.0369 41.625 51 41.625ZM43.5 58.5C35.2294 58.5 28.5 51.7706 28.5 43.5C28.5 35.2294 35.2294 28.5 43.5 28.5C51.7706 28.5 58.5 35.2294 58.5 43.5C58.5 51.7706 51.7706 58.5 43.5 58.5ZM43.5 24.75C33.1613 24.75 24.75 33.1613 24.75 43.5C24.75 53.8387 33.1613 62.25 43.5 62.25C53.8387 62.25 62.25 53.8387 62.25 43.5C62.25 33.1613 53.8387 24.75 43.5 24.75Z" fill="#231F20"/>
<mask id="mask0_2_7604" style="mask-type:luminance" maskUnits="userSpaceOnUse" x="24" y="24" width="39" height="39">
<path fill-rule="evenodd" clip-rule="evenodd" d="M51 41.625H45.375V36C45.375 34.9631 44.535 34.125 43.5 34.125C42.465 34.125 41.625 34.9631 41.625 36V43.5C41.625 44.5369 42.465 45.375 43.5 45.375H51C52.0369 45.375 52.875 44.5369 52.875 43.5C52.875 42.4631 52.0369 41.625 51 41.625ZM43.5 58.5C35.2294 58.5 28.5 51.7706 28.5 43.5C28.5 35.2294 35.2294 28.5 43.5 28.5C51.7706 28.5 58.5 35.2294 58.5 43.5C58.5 51.7706 51.7706 58.5 43.5 58.5ZM43.5 24.75C33.1613 24.75 24.75 33.1613 24.75 43.5C24.75 53.8387 33.1613 62.25 43.5 62.25C53.8387 62.25 62.25 53.8387 62.25 43.5C62.25 33.1613 53.8387 24.75 43.5 24.75Z" fill="white"/>
</mask>
<g mask="url(#mask0_2_7604)">
<rect x="21" y="21" width="45" height="45" fill="#FAFAFA"/>
</g>
</svg>
